General Info:

Complete name                            : skyfall-2012-BD..avi
Format                                   : AVI
Format/Info                              : Audio Video Interleave
Format profile                           : OpenDML
File size                                : 2.01 GiB
Duration                                 : 2h 17mn
Overall bit rate                         : 2 093 Kbps
Writing library                          : VirtualDub build 30091/release

Video:
ID                                       : 0
Format                                   : MPEG-4 Visual
Format profile                           : Advanced Simple@L5
Format settings, BVOP                    : 1
Format settings, QPel                    : No
Format settings, GMC                     : No warppoints
Format settings, Matrix                  : Default (H.263)
Codec ID                                 : XVID
Codec ID/Hint                            : XviD
Duration                                 : 2h 17mn
Bit rate                                 : 1 953 Kbps
Width                                    : 640 pixels
Height                                   : 270 pixels
Display aspect ratio                     : 2.35:1
Frame rate                               : 23.976 fps
Color space                              : YUV
Chroma subsampling                       : 4:2:0
Bit depth                                : 8 bits
Scan type                                : Progressive
Compression mode                         : Lossy
Bits/(Pixel*Frame)                       : 0.471
Stream size                              : 1.88 GiB (93%)
Writing library                          : XviD 64

Audio:
ID                                       : 1
Format                                   : MPEG Audio
Format version                           : Version 1
Format profile                           : Layer 3
Mode                                     : Joint stereo
Mode extension                           : MS Stereo
Codec ID                                 : 55
Codec ID/Hint                            : MP3
Duration                                 : 2h 17mn
Bit rate mode                            : Constant
Bit rate                                 : 128 Kbps
Channel(s)                               : 2 channels
Sampling rate                            : 48.0 KHz
Compression mode                         : Lossy
Stream size                              : 126 MiB (6%)
Alignment                                : Split accross interleaves
Interleave, duration                     : 42 ms (1.00 video frame)
Interleave, preload duration             : 500 ms


IMDB http://www.imdb.com/title/tt1074638/

Plot: Bond's loyalty to M is tested as her past comes back to haunt her. As MI6 comes under attack, 007 must track down and destroy the threat, no matter how personal the cost.

Cast: Daniel Craig, Javier Bardem, Naomie Harris

Screens: 
 
http://i1090.photobucket.com/albums/i363/Lnboobear/skyfall1.png






--------------------------------------
!!! ENJOY & SEED 60mb UPLOAD SPEED !!!
--------------------------------------
